<svg width="1440" height="680" viewBox="0 0 1440 680" fill="none" xmlns="http://www.w3.org/2000/svg">
<path d="M0 280H1440V680H0V280Z" fill="white"/>
<g clip-path="url(#clip0_1_164)">
<path fill-rule="evenodd" clip-rule="evenodd" d="M42.7162 358.853L81.6211 418.063H108.537L57.4331 342.646L104.46 282.979H78.4476L25.4524 351.015V282.979H3.97619V418.063H25.4524V380.127L42.7162 358.853ZM77.9714 282H106.476L58.6429 342.69L110.381 419.042H81.0952L42.6333 360.506L26.4286 380.475V419.042H3V282H26.4286V348.172L77.9714 282ZM143.721 321.155H125.954V419.042H148.602V362.268C148.602 355.611 150.684 350.325 154.849 346.41C159.145 342.494 165.783 340.537 174.764 340.537H184.526V319.393H174.764C168.646 319.393 163.049 320.502 157.973 322.721C153.424 324.642 149.536 327.445 146.309 331.132C146.027 331.454 145.75 331.783 145.478 332.118L143.721 321.155ZM183.549 320.372H174.764C168.766 320.372 163.304 321.459 158.364 323.618L158.352 323.623C153.554 325.649 149.518 328.684 146.235 332.736L144.86 334.433L142.889 322.134H126.93V418.063H147.626V362.268C147.626 355.389 149.788 349.827 154.182 345.696L154.188 345.691L154.192 345.686C158.744 341.537 165.667 339.558 174.764 339.558H183.549V320.372ZM221.839 395.549C218.091 392.041 215.842 386.429 215.092 378.713C215.061 378.39 215.031 378.064 215.006 377.734H284.12V370.099C284.12 353.784 280.02 341.254 271.82 332.51C263.62 323.765 252.426 319.393 238.239 319.393C231.211 319.393 224.898 320.502 219.301 322.721C213.704 324.809 208.888 327.942 204.854 332.118C200.818 336.164 197.694 341.124 195.482 346.997C193.399 352.87 192.359 359.527 192.359 366.966V373.231C192.359 380.67 193.399 387.327 195.482 393.2C197.694 399.073 200.818 404.098 204.854 408.275C208.888 412.32 213.704 415.453 219.301 417.672C224.898 419.76 231.211 420.804 238.239 420.804C245.007 420.804 250.994 420.021 256.201 418.455C261.407 416.759 265.832 414.474 269.478 411.603C273.122 408.732 276.05 405.338 278.263 401.423C280.316 397.788 281.866 393.872 282.911 389.676C282.991 389.351 283.069 389.025 283.144 388.697H259.716C258.674 391.96 256.526 394.832 253.273 397.311C250.149 399.661 245.137 400.835 238.239 400.835C231.211 400.835 225.744 399.073 221.839 395.549ZM260.411 389.676C259.227 392.88 257.023 395.682 253.863 398.09L253.858 398.094C250.478 400.636 245.205 401.814 238.239 401.814C231.052 401.814 225.323 400.011 221.186 396.277L221.18 396.271L221.173 396.265C217.015 392.374 214.693 386.15 214.033 377.811L213.949 376.755H283.144V370.099C283.144 353.942 279.085 341.687 271.109 333.18C263.127 324.669 252.211 320.372 238.239 320.372C231.313 320.372 225.125 321.465 219.66 323.631L219.651 323.635L219.641 323.639C214.176 325.678 209.485 328.731 205.555 332.799L205.549 332.805L205.544 332.81C201.618 336.747 198.567 341.582 196.398 347.334C194.362 353.082 193.335 359.621 193.335 366.966V373.231C193.335 380.575 194.362 387.115 196.399 392.863C198.567 398.615 201.619 403.518 205.549 407.587C209.481 411.529 214.177 414.586 219.651 416.758C225.118 418.797 231.31 419.825 238.239 419.825C244.929 419.825 250.816 419.051 255.909 417.521C261.022 415.853 265.337 413.62 268.874 410.833C272.422 408.038 275.265 404.741 277.414 400.94C279.384 397.454 280.88 393.7 281.903 389.676H260.411ZM214.264 360.701L214.43 359.579C215.491 352.396 217.968 346.985 221.983 343.515C225.986 340.054 231.445 338.383 238.239 338.383C245.02 338.383 250.472 339.983 254.474 343.301C258.651 346.655 261.123 352.161 262.051 359.601L262.187 360.701H214.264ZM253.858 344.061C250.084 340.928 244.878 339.362 238.239 339.362C231.601 339.362 226.394 340.993 222.62 344.256C219.022 347.366 216.667 352.195 215.552 358.744C215.497 359.066 215.445 359.392 215.397 359.723H261.082C261.04 359.392 260.996 359.066 260.95 358.744C259.95 351.946 257.587 347.051 253.858 344.061ZM363.761 343.698L384.485 418.063H410.323L435.197 322.134H414.971L397.478 394.949L377.341 322.134H351.517L334.517 392.062L332.623 392.073L314.655 322.134H293.27L320.057 418.063H345.881L363.761 343.698ZM346.649 419.042H319.316L291.983 321.155H315.411L333.568 391.83L350.749 321.155H378.083L397.411 391.046L414.202 321.155H436.459L411.078 419.042H383.745L363.83 347.585L346.649 419.042ZM456.718 332.118C452.683 336.164 449.559 341.124 447.346 346.997C445.264 352.87 444.222 359.527 444.222 366.966V373.231C444.222 380.67 445.264 387.327 447.346 393.2C449.559 399.073 452.683 404.098 456.718 408.275C460.753 412.32 465.569 415.453 471.165 417.672C476.763 419.76 483.075 420.804 490.103 420.804C496.872 420.804 502.859 420.021 508.065 418.455C513.272 416.759 517.697 414.474 521.341 411.603C524.987 408.732 527.915 405.338 530.127 401.423C532.181 397.788 533.73 393.872 534.775 389.676C534.856 389.351 534.934 389.025 535.008 388.697H511.58C510.539 391.96 508.391 394.832 505.137 397.311C502.013 399.661 497.002 400.835 490.103 400.835C483.075 400.835 477.608 399.073 473.703 395.549C469.956 392.041 467.707 386.429 466.957 378.713C466.926 378.39 466.896 378.064 466.87 377.734H535.984V370.099C535.984 353.784 531.884 341.254 523.684 332.51C515.484 323.765 504.291 319.393 490.103 319.393C483.075 319.393 476.763 320.502 471.165 322.721C465.569 324.809 460.753 327.942 456.718 332.118ZM535.008 376.755V370.099C535.008 353.942 530.95 341.687 522.974 333.18C514.992 324.669 504.076 320.372 490.103 320.372C483.177 320.372 476.989 321.465 471.525 323.631L471.516 323.635L471.506 323.639C466.041 325.678 461.35 328.731 457.42 332.799L457.414 332.805L457.408 332.81C453.483 336.747 450.432 341.582 448.263 347.334C446.227 353.082 445.199 359.621 445.199 366.966V373.231C445.199 380.575 446.227 387.115 448.263 392.863C450.431 398.615 453.484 403.518 457.414 407.588C461.346 411.529 466.042 414.586 471.515 416.758C476.983 418.797 483.175 419.825 490.103 419.825C496.794 419.825 502.681 419.051 507.774 417.52C512.887 415.853 517.201 413.62 520.739 410.833C524.287 408.038 527.13 404.741 529.278 400.94C531.248 397.454 532.745 393.7 533.768 389.676H512.276C511.092 392.88 508.887 395.682 505.727 398.09L505.722 398.094C502.343 400.636 497.07 401.814 490.103 401.814C482.917 401.814 477.188 400.011 473.05 396.277L473.044 396.271L473.038 396.265C468.88 392.374 466.558 386.15 465.898 377.811L465.814 376.755H535.008ZM466.129 360.701L466.295 359.579C467.356 352.396 469.833 346.985 473.847 343.515C477.85 340.054 483.31 338.383 490.103 338.383C496.885 338.383 502.337 339.983 506.339 343.301C510.515 346.655 512.988 352.161 513.916 359.601L514.052 360.701H466.129ZM505.722 344.061C501.949 340.928 496.742 339.362 490.103 339.362C483.465 339.362 478.259 340.993 474.484 344.256C470.887 347.366 468.531 352.195 467.417 358.744C467.362 359.066 467.309 359.392 467.261 359.723H512.946C512.905 359.392 512.861 359.066 512.814 358.744C511.815 351.946 509.451 347.051 505.722 344.061Z" fill="#FFBCBC"/>
</g>
<g clip-path="url(#clip1_1_164)">
<path d="M42.6333 360.506L26.4286 380.475V419.042H3V282H26.4286V348.172L77.9714 282H106.476L58.6429 342.69L110.381 419.042H81.0952L42.6333 360.506Z" fill="#FFBCBC"/>
<path d="M125.954 321.155H143.721L145.478 332.118C148.862 327.942 153.027 324.809 157.973 322.721C163.049 320.502 168.646 319.393 174.764 319.393H184.526V340.537H174.764C165.783 340.537 159.145 342.494 154.849 346.41C150.684 350.325 148.602 355.611 148.602 362.268V419.042H125.954V321.155Z" fill="#FFBCBC"/>
<path d="M238.239 420.804C231.211 420.804 224.898 419.76 219.301 417.672C213.704 415.453 208.888 412.32 204.854 408.275C200.818 404.098 197.694 399.073 195.482 393.2C193.399 387.327 192.359 380.671 192.359 373.231V366.966C192.359 359.527 193.399 352.871 195.482 346.997C197.694 341.124 200.818 336.164 204.854 332.118C208.888 327.942 213.704 324.809 219.301 322.721C224.898 320.502 231.211 319.393 238.239 319.393C252.426 319.393 263.62 323.765 271.82 332.51C280.02 341.255 284.12 353.784 284.12 370.099V377.734H215.006C215.656 385.956 217.935 391.895 221.839 395.549C225.744 399.073 231.211 400.835 238.239 400.835C245.137 400.835 250.149 399.661 253.273 397.311C256.526 394.832 258.674 391.96 259.716 388.697H283.144C282.103 393.266 280.475 397.507 278.263 401.423C276.05 405.338 273.122 408.732 269.478 411.603C265.832 414.474 261.407 416.759 256.201 418.455C250.994 420.021 245.007 420.804 238.239 420.804ZM238.239 339.362C231.601 339.362 226.394 340.994 222.62 344.256C218.845 347.519 216.437 352.675 215.397 359.723H261.082C260.171 352.414 257.763 347.193 253.859 344.061C250.084 340.928 244.878 339.362 238.239 339.362Z" fill="#FFBCBC"/>
<path d="M363.83 347.584L346.649 419.042H319.316L291.983 321.155H315.411L333.568 391.829L350.749 321.155H378.083L397.411 391.046L414.202 321.155H436.459L411.078 419.042H383.745L363.83 347.584Z" fill="#FFBCBC"/>
<path d="M490.103 420.804C483.075 420.804 476.763 419.76 471.165 417.672C465.569 415.453 460.753 412.32 456.718 408.275C452.683 404.098 449.559 399.073 447.346 393.2C445.264 387.327 444.222 380.671 444.222 373.231V366.966C444.222 359.527 445.264 352.871 447.346 346.997C449.559 341.124 452.683 336.164 456.718 332.118C460.753 327.942 465.569 324.809 471.165 322.721C476.763 320.502 483.075 319.393 490.103 319.393C504.291 319.393 515.484 323.765 523.684 332.51C531.884 341.255 535.984 353.784 535.984 370.099V377.734H466.87C467.521 385.956 469.799 391.895 473.703 395.549C477.608 399.073 483.075 400.835 490.103 400.835C497.002 400.835 502.013 399.661 505.137 397.311C508.391 394.832 510.539 391.96 511.58 388.697H535.008C533.968 393.266 532.34 397.507 530.127 401.423C527.915 405.338 524.987 408.732 521.342 411.603C517.697 414.474 513.272 416.759 508.065 418.455C502.859 420.021 496.872 420.804 490.103 420.804ZM490.103 339.362C483.465 339.362 478.259 340.994 474.484 344.256C470.71 347.519 468.302 352.675 467.261 359.723H512.946C512.035 352.414 509.627 347.193 505.722 344.061C501.949 340.928 496.742 339.362 490.103 339.362Z" fill="#FFBCBC"/>
</g>
<g clip-path="url(#clip2_1_164)">
<path d="M597.745 419.538C590.037 419.538 583 418.311 576.632 415.859C570.377 413.406 565.015 409.782 560.547 404.988C556.19 400.194 552.783 394.397 550.325 387.596C547.868 380.683 546.639 372.767 546.639 363.848V355.152C546.639 346.344 547.868 338.54 550.325 331.739C552.783 324.826 556.246 318.973 560.714 314.179C565.183 309.385 570.545 305.762 576.8 303.309C583.167 300.745 590.149 299.462 597.745 299.462C604.559 299.462 610.703 300.466 616.177 302.473C621.762 304.479 626.566 307.211 630.587 310.667C634.608 314.012 637.848 317.97 640.306 322.541C642.875 327.001 644.607 331.795 645.5 336.923H623.382C622.488 334.359 621.315 331.962 619.863 329.732C618.411 327.391 616.624 325.384 614.501 323.712C612.379 322.039 609.921 320.701 607.129 319.698C604.336 318.695 601.208 318.193 597.745 318.193C588.809 318.193 581.548 321.259 575.962 327.391C570.489 333.523 567.752 342.776 567.752 355.152V363.848C567.752 369.98 568.478 375.387 569.93 380.07C571.494 384.641 573.561 388.488 576.13 391.609C578.811 394.62 581.994 396.905 585.681 398.466C589.367 400.027 593.389 400.807 597.745 400.807C604.559 400.807 610.145 398.8 614.501 394.787C618.858 390.773 621.818 385.422 623.382 378.732H645.5C644.607 384.641 642.875 390.104 640.306 395.121C637.848 400.027 634.553 404.319 630.419 407.998C626.398 411.566 621.651 414.409 616.177 416.527C610.703 418.534 604.559 419.538 597.745 419.538Z" fill="#FFBCBC"/>
<path d="M684.026 419.538C674.977 419.538 668.107 417.308 663.416 412.848C658.724 408.389 656.378 402.201 656.378 394.285C656.378 389.937 657.048 386.035 658.389 382.579C659.841 379.011 662.075 376.056 665.091 373.715C668.219 371.262 672.185 369.423 676.988 368.196C681.904 366.859 687.88 366.19 694.917 366.19H708.992V361.173C708.992 357.159 707.875 354.149 705.641 352.142C703.519 350.023 699.944 348.964 694.917 348.964C690.225 348.964 686.818 349.856 684.696 351.64C682.574 353.424 681.289 355.765 680.842 358.664H659.729C660.176 351.194 663.192 345.062 668.778 340.268C674.475 335.362 683.188 332.91 694.917 332.91C706.088 332.91 714.466 335.474 720.051 340.603C725.637 345.731 728.429 352.588 728.429 361.173V418.033H713.181L711.171 406.493C708.266 410.73 704.468 413.963 699.776 416.193C695.197 418.423 689.946 419.538 684.026 419.538ZM687.377 403.483C690.505 403.483 693.353 402.981 695.922 401.978C698.603 400.863 700.893 399.413 702.792 397.63C704.692 395.735 706.2 393.616 707.317 391.275C708.433 388.934 708.992 386.425 708.992 383.749V381.241H694.917C688.215 381.241 683.523 382.356 680.842 384.586C678.161 386.815 676.821 389.826 676.821 393.616C676.821 396.626 677.715 399.024 679.502 400.807C681.401 402.591 684.026 403.483 687.377 403.483Z" fill="#FFBCBC"/>
<path d="M749.296 334.415H764.544L766.052 343.78C768.956 340.212 772.531 337.536 776.775 335.753C781.132 333.857 785.936 332.91 791.186 332.91H799.564V350.971H791.186C783.478 350.971 777.781 352.643 774.095 355.988C770.521 359.333 768.733 363.848 768.733 369.534V418.033H749.296V334.415Z" fill="#FFBCBC"/>
<path d="M840.43 418.032C831.604 418.032 824.79 415.691 819.987 411.008C815.296 406.215 812.95 399.358 812.95 390.438V300.967H832.387V388.432C832.387 392.78 833.336 395.957 835.235 397.964C837.134 399.971 840.038 400.974 843.949 400.974H848.138V418.032H840.43Z" fill="#FFBCBC"/>
<path d="M884.149 419.538C875.101 419.538 868.231 417.308 863.539 412.848C858.848 408.389 856.502 402.201 856.502 394.285C856.502 389.937 857.172 386.035 858.513 382.579C859.965 379.011 862.199 376.056 865.215 373.715C868.343 371.262 872.309 369.423 877.112 368.196C882.027 366.859 888.003 366.19 895.041 366.19H909.116V361.173C909.116 357.159 907.999 354.149 905.765 352.142C903.643 350.023 900.068 348.964 895.041 348.964C890.349 348.964 886.943 349.856 884.82 351.64C882.697 353.424 881.413 355.765 880.966 358.664H859.853C860.301 351.194 863.317 345.062 868.901 340.268C874.598 335.362 883.312 332.91 895.041 332.91C906.212 332.91 914.59 335.474 920.175 340.603C925.761 345.731 928.553 352.588 928.553 361.173V418.033H913.305L911.294 406.493C908.39 410.73 904.592 413.963 899.9 416.193C895.321 418.423 890.07 419.538 884.149 419.538ZM887.501 403.483C890.629 403.483 893.478 402.981 896.046 401.978C898.727 400.863 901.018 399.413 902.916 397.63C904.815 395.735 906.324 393.616 907.44 391.275C908.558 388.934 909.116 386.425 909.116 383.749V381.241H895.041C888.338 381.241 883.647 382.356 880.966 384.586C878.285 386.815 876.944 389.826 876.944 393.616C876.944 396.626 877.838 399.024 879.625 400.807C881.525 402.591 884.149 403.483 887.501 403.483Z" fill="#FFBCBC"/>
<path d="M997.175 419.538C989.467 419.538 982.43 418.311 976.062 415.859C969.806 413.406 964.444 409.782 959.976 404.988C955.62 400.194 952.213 394.397 949.755 387.596C947.297 380.683 946.069 372.767 946.069 363.848V355.152C946.069 346.344 947.297 338.54 949.755 331.739C952.213 324.826 955.675 318.973 960.144 314.179C964.612 309.385 969.974 305.762 976.23 303.309C982.597 300.745 989.579 299.462 997.175 299.462C1003.99 299.462 1010.13 300.466 1015.61 302.473C1021.19 304.479 1026 307.211 1030.02 310.667C1034.04 314.012 1037.28 317.97 1039.74 322.541C1042.3 327.001 1044.04 331.795 1044.93 336.923H1022.81C1021.92 334.359 1020.74 331.962 1019.29 329.732C1017.84 327.391 1016.05 325.384 1013.93 323.712C1011.81 322.039 1009.35 320.701 1006.56 319.698C1003.77 318.695 1000.64 318.193 997.175 318.193C988.238 318.193 980.977 321.259 975.392 327.391C969.918 333.523 967.182 342.776 967.182 355.152V363.848C967.182 369.98 967.907 375.387 969.36 380.07C970.923 384.641 972.99 388.488 975.56 391.609C978.241 394.62 981.424 396.905 985.111 398.466C988.797 400.027 992.818 400.807 997.175 400.807C1003.99 400.807 1009.57 398.8 1013.93 394.787C1018.29 390.773 1021.25 385.422 1022.81 378.732H1044.93C1044.04 384.641 1042.3 390.104 1039.74 395.121C1037.28 400.027 1033.98 404.319 1029.85 407.998C1025.83 411.566 1021.08 414.409 1015.61 416.527C1010.13 418.534 1003.99 419.538 997.175 419.538Z" fill="#FFBCBC"/>
<path d="M1096.86 419.538C1084.24 419.538 1074.35 415.97 1067.2 408.835C1060.16 401.7 1056.65 391.721 1056.65 378.9V373.548C1056.65 367.193 1057.54 361.507 1059.33 356.49C1061.23 351.473 1063.91 347.236 1067.37 343.78C1070.94 340.212 1075.19 337.536 1080.1 335.753C1085.02 333.857 1090.6 332.91 1096.86 332.91C1109.48 332.91 1119.31 336.477 1126.35 343.613C1133.5 350.748 1137.07 360.726 1137.07 373.548V378.9C1137.07 385.254 1136.13 390.94 1134.23 395.958C1132.44 400.975 1129.76 405.267 1126.18 408.835C1122.72 412.291 1118.48 414.966 1113.45 416.862C1108.53 418.646 1103 419.538 1096.86 419.538ZM1096.86 401.476C1103.23 401.476 1108.09 399.637 1111.44 395.958C1114.9 392.278 1116.63 386.592 1116.63 378.9V373.548C1116.63 365.967 1114.84 360.336 1111.27 356.657C1107.81 352.866 1103 350.971 1096.86 350.971C1090.49 350.971 1085.58 352.811 1082.11 356.49C1078.76 360.169 1077.09 365.855 1077.09 373.548V378.9C1077.09 386.481 1078.82 392.167 1082.28 395.958C1085.86 399.637 1090.72 401.476 1096.86 401.476Z" fill="#FFBCBC"/>
<path d="M1181.28 418.032C1172.45 418.032 1165.64 415.691 1160.84 411.008C1156.14 406.215 1153.8 399.358 1153.8 390.438V300.967H1173.23V388.432C1173.23 392.78 1174.18 395.957 1176.08 397.964C1177.98 399.971 1180.89 400.974 1184.8 400.974H1188.99V418.032H1181.28Z" fill="#FFBCBC"/>
<path d="M1236.77 419.538C1224.14 419.538 1214.26 415.97 1207.11 408.835C1200.07 401.7 1196.55 391.721 1196.55 378.9V373.548C1196.55 367.193 1197.45 361.507 1199.23 356.49C1201.13 351.473 1203.81 347.236 1207.28 343.78C1210.85 340.212 1215.1 337.536 1220.01 335.753C1224.93 333.857 1230.51 332.91 1236.77 332.91C1249.39 332.91 1259.22 336.477 1266.26 343.613C1273.41 350.748 1276.98 360.726 1276.98 373.548V378.9C1276.98 385.254 1276.03 390.94 1274.13 395.958C1272.35 400.975 1269.66 405.267 1266.09 408.835C1262.63 412.291 1258.38 414.966 1253.36 416.862C1248.44 418.646 1242.91 419.538 1236.77 419.538ZM1236.77 401.476C1243.13 401.476 1247.99 399.637 1251.34 395.958C1254.81 392.278 1256.54 386.592 1256.54 378.9V373.548C1256.54 365.967 1254.75 360.336 1251.18 356.657C1247.71 352.866 1242.91 350.971 1236.77 350.971C1230.4 350.971 1225.48 352.811 1222.02 356.49C1218.67 360.169 1216.99 365.855 1216.99 373.548V378.9C1216.99 386.481 1218.73 392.167 1222.19 395.958C1225.76 399.637 1230.62 401.476 1236.77 401.476Z" fill="#FFBCBC"/>
<path d="M1324.7 419.538C1314.87 419.538 1307.11 416.527 1301.41 410.507C1295.71 404.375 1292.87 395.177 1292.87 382.913V334.415H1312.3V382.913C1312.3 389.045 1313.76 393.672 1316.66 396.793C1319.56 399.915 1323.36 401.476 1328.05 401.476C1333.75 401.476 1338.28 399.86 1341.63 396.626C1345.09 393.393 1346.93 389.101 1347.16 383.749V334.415H1366.59V418.032H1351.35L1349.84 408.834C1346.82 412.29 1343.19 414.966 1338.95 416.862C1334.7 418.645 1329.95 419.538 1324.7 419.538Z" fill="#FFBCBC"/>
<path d="M1388.45 334.415H1403.7L1405.2 343.78C1408.11 340.212 1411.68 337.536 1415.93 335.753C1420.28 333.857 1425.09 332.91 1430.34 332.91H1438.72V350.971H1430.34C1422.63 350.971 1416.93 352.643 1413.25 355.988C1409.67 359.333 1407.89 363.848 1407.89 369.534V418.033H1388.45V334.415Z" fill="#FFBCBC"/>
</g>
<g clip-path="url(#clip3_1_164)">
<path fill-rule="evenodd" clip-rule="evenodd" d="M948.779 331.277C946.316 338.077 945.084 345.882 945.084 354.69V363.386C945.084 372.305 946.316 380.221 948.779 387.133C951.241 393.934 954.656 399.732 959.022 404.526C963.5 409.32 968.874 412.944 975.144 415.396C981.525 417.849 988.578 419.075 996.303 419.075C1003.13 419.075 1009.29 418.072 1014.78 416.065C1020.26 413.947 1025.02 411.104 1029.05 407.536C1033.19 403.857 1036.5 399.565 1038.96 394.659C1041.39 389.921 1043.07 384.786 1044.01 379.254C1044.06 378.927 1044.11 378.599 1044.16 378.27H1022C1020.43 384.959 1017.46 390.311 1013.1 394.324C1008.73 398.338 1003.13 400.345 996.303 400.345C991.937 400.345 987.907 399.565 984.212 398.004C980.518 396.443 977.327 394.157 974.64 391.147C972.065 388.025 969.994 384.179 968.427 379.608C966.972 374.925 966.243 369.518 966.243 363.386V354.69C966.243 342.314 968.987 333.06 974.472 326.928C980.07 320.796 987.347 317.73 996.303 317.73C999.773 317.73 1002.91 318.232 1005.71 319.236C1008.51 320.239 1010.97 321.577 1013.1 323.249C1015.22 324.922 1017.02 326.928 1018.47 329.27C1019.93 331.5 1021.1 333.896 1022 336.461H1044.16C1044.11 336.132 1044.05 335.804 1043.98 335.477C1043.04 330.718 1041.37 326.252 1038.96 322.079C1036.5 317.507 1033.25 313.55 1029.22 310.205C1025.19 306.749 1020.37 304.017 1014.78 302.01C1009.29 300.003 1003.13 299 996.303 299C988.69 299 981.693 300.282 975.312 302.846C969.042 305.299 963.668 308.923 959.19 313.717C954.713 318.511 951.241 324.364 948.779 331.277ZM1042.97 335.477C1042.05 330.894 1040.42 326.592 1038.1 322.569L1038.09 322.556L1038.09 322.544C1035.69 318.085 1032.52 314.225 1028.59 310.961L1028.58 310.955L1028.57 310.95C1024.64 307.581 1019.94 304.907 1014.44 302.936L1014.43 302.934C1009.07 300.973 1003.04 299.984 996.303 299.984C988.804 299.984 981.933 301.246 975.681 303.759L975.673 303.762C969.538 306.162 964.289 309.703 959.913 314.387C955.537 319.071 952.133 324.804 949.709 331.605L949.708 331.61C947.291 338.284 946.072 345.972 946.072 354.69V363.386C946.072 372.215 947.291 380.016 949.709 386.802C952.132 393.493 955.482 399.173 959.749 403.86C964.123 408.54 969.369 412.079 975.5 414.479C981.754 416.883 988.685 418.092 996.303 418.092C1003.03 418.092 1009.07 417.104 1014.43 415.144C1019.81 413.066 1024.46 410.283 1028.39 406.801C1032.44 403.205 1035.67 399.012 1038.07 394.219L1038.08 394.211C1040.44 389.615 1042.08 384.631 1043 379.254H1022.77C1021.12 385.754 1018.13 391.035 1013.77 395.047C1009.19 399.254 1003.34 401.329 996.303 401.329C991.816 401.329 987.653 400.526 983.826 398.91C979.996 397.291 976.685 394.919 973.902 391.801L973.889 391.786L973.876 391.771C971.213 388.543 969.09 384.587 967.492 379.926L967.487 379.912L967.483 379.899C965.992 375.102 965.256 369.593 965.256 363.386V354.69C965.256 342.191 968.023 332.658 973.734 326.274L973.741 326.267C979.542 319.913 987.093 316.747 996.303 316.747C999.869 316.747 1003.12 317.262 1006.04 318.31C1008.93 319.346 1011.49 320.733 1013.71 322.477C1015.92 324.22 1017.79 326.31 1019.3 328.743C1020.67 330.845 1021.8 333.09 1022.69 335.477H1042.97ZM1079.42 335.29C1074.49 337.074 1070.24 339.75 1066.65 343.317C1063.18 346.774 1060.5 351.01 1058.59 356.027C1056.8 361.044 1055.91 366.73 1055.91 373.085V378.437C1055.91 391.258 1059.43 401.237 1066.49 408.372C1073.65 415.507 1083.56 419.075 1096.21 419.075C1102.37 419.075 1107.91 418.183 1112.83 416.4C1117.87 414.504 1122.13 411.828 1125.6 408.372C1129.18 404.804 1131.87 400.512 1133.66 395.495C1135.56 390.478 1136.51 384.792 1136.51 378.437V373.085C1136.51 360.264 1132.93 350.286 1125.77 343.15C1118.71 336.015 1108.86 332.447 1096.21 332.447C1089.94 332.447 1084.34 333.395 1079.42 335.29ZM1112.49 415.477C1117.41 413.626 1121.54 411.023 1124.9 407.677C1128.37 404.218 1130.98 400.053 1132.73 395.165L1132.73 395.156L1132.73 395.147C1134.59 390.26 1135.53 384.695 1135.53 378.437V373.085C1135.53 360.451 1132 350.75 1125.07 343.846L1125.06 343.84C1118.24 336.939 1108.67 333.431 1096.21 333.431C1090.04 333.431 1084.57 334.363 1079.77 336.208L1079.76 336.211L1079.75 336.215C1074.96 337.951 1070.83 340.551 1067.35 344.013C1063.99 347.359 1061.38 351.471 1059.52 356.366C1057.77 361.257 1056.89 366.826 1056.89 373.085V378.437C1056.89 391.074 1060.36 400.775 1067.19 407.679C1074.12 414.585 1083.75 418.092 1096.21 418.092C1102.27 418.092 1107.69 417.214 1112.49 415.477ZM1081.43 356.027C1084.9 352.348 1089.83 350.509 1096.21 350.509C1102.37 350.509 1107.18 352.404 1110.65 356.195C1114.23 359.874 1116.03 365.504 1116.03 373.085V378.437C1116.03 386.13 1114.29 391.816 1110.82 395.495C1107.46 399.174 1102.59 401.014 1096.21 401.014C1090.05 401.014 1085.18 399.174 1081.6 395.495C1078.13 391.704 1076.39 386.018 1076.39 378.437V373.085C1076.39 365.393 1078.07 359.707 1081.43 356.027ZM1111.54 396.163C1107.95 400.097 1102.78 401.998 1096.21 401.998C1089.84 401.998 1084.69 400.087 1080.89 396.18L1080.88 396.169L1080.87 396.158C1077.17 392.116 1075.41 386.149 1075.41 378.437V373.085C1075.41 365.277 1077.11 359.303 1080.7 355.366L1080.71 355.36L1080.71 355.354C1084.41 351.428 1089.63 349.525 1096.21 349.525C1102.58 349.525 1107.68 351.493 1111.37 355.521C1115.19 359.455 1117.01 365.377 1117.01 373.085V378.437C1117.01 386.249 1115.25 392.226 1111.54 396.163ZM1161.03 409.851C1165.6 414.297 1172.15 416.586 1180.81 416.586H1187.55V401.496H1184.34C1180.27 401.496 1177.05 400.451 1174.89 398.178C1172.74 395.907 1171.77 392.43 1171.77 387.969V301.489H1154.26V389.976C1154.26 398.721 1156.56 405.295 1161.03 409.851ZM1160.33 410.546C1155.62 405.752 1153.27 398.896 1153.27 389.976V300.505H1172.75V387.969C1172.75 392.318 1173.7 395.495 1175.61 397.502C1177.51 399.509 1180.42 400.512 1184.34 400.512H1188.54V417.57H1180.81C1171.97 417.57 1165.14 415.229 1160.33 410.546ZM1265.98 343.15C1258.93 336.015 1249.08 332.447 1236.43 332.447C1230.16 332.447 1224.56 333.395 1219.63 335.29C1214.71 337.074 1210.45 339.75 1206.87 343.317C1203.4 346.774 1200.71 351.01 1198.81 356.027C1197.02 361.044 1196.12 366.73 1196.12 373.085V378.437C1196.12 391.258 1199.65 401.237 1206.7 408.372C1213.87 415.507 1223.77 419.075 1236.43 419.075C1242.58 419.075 1248.12 418.183 1253.05 416.4C1258.09 414.504 1262.34 411.828 1265.81 408.372C1269.4 404.804 1272.08 400.512 1273.87 395.495C1275.78 390.478 1276.73 384.792 1276.73 378.437V373.085C1276.73 360.264 1273.15 350.286 1265.98 343.15ZM1252.71 415.477C1257.62 413.626 1261.75 411.023 1265.11 407.677C1268.59 404.218 1271.2 400.053 1272.94 395.165L1272.95 395.156L1272.95 395.147C1274.8 390.26 1275.74 384.695 1275.74 378.437V373.085C1275.74 360.451 1272.22 350.75 1265.28 343.846L1265.28 343.84C1258.46 336.939 1248.88 333.431 1236.43 333.431C1230.26 333.431 1224.78 334.363 1219.99 336.208L1219.98 336.211L1219.97 336.215C1215.18 337.951 1211.04 340.551 1207.57 344.013C1204.21 347.359 1201.59 351.471 1199.74 356.366C1197.99 361.257 1197.11 366.826 1197.11 373.085V378.437C1197.11 391.074 1200.58 400.776 1207.4 407.68C1214.34 414.585 1223.97 418.092 1236.43 418.092C1242.48 418.092 1247.91 417.214 1252.71 415.477ZM1221.82 395.495C1218.35 391.704 1216.61 386.018 1216.61 378.437V373.085C1216.61 365.393 1218.29 359.707 1221.65 356.027C1225.12 352.348 1230.04 350.509 1236.43 350.509C1242.58 350.509 1247.4 352.404 1250.87 356.195C1254.45 359.874 1256.24 365.504 1256.24 373.085V378.437C1256.24 386.13 1254.51 391.816 1251.04 395.495C1247.68 399.174 1242.81 401.014 1236.43 401.014C1230.27 401.014 1225.4 399.174 1221.82 395.495ZM1220.92 355.36L1220.93 355.354C1224.63 351.428 1229.85 349.525 1236.43 349.525C1242.8 349.525 1247.89 351.493 1251.59 355.52C1255.41 359.455 1257.23 365.376 1257.23 373.085V378.437C1257.23 386.249 1255.47 392.226 1251.76 396.163C1248.17 400.097 1243 401.998 1236.43 401.998C1230.06 401.998 1224.91 400.087 1221.11 396.18L1221.1 396.169L1221.09 396.158C1217.38 392.116 1215.62 386.149 1215.62 378.437V373.085C1215.62 365.277 1217.32 359.303 1220.92 355.366L1220.92 355.36ZM1349.75 408.372C1349.47 408.689 1349.19 409 1348.9 409.304C1346.05 412.313 1342.69 414.678 1338.83 416.4C1334.58 418.183 1329.82 419.075 1324.56 419.075C1314.71 419.075 1306.92 416.065 1301.21 410.045C1295.5 403.913 1292.65 394.715 1292.65 382.451V333.952H1312.13V382.451C1312.13 388.583 1313.58 393.21 1316.5 396.331C1319.41 399.453 1323.21 401.014 1327.92 401.014C1333.63 401.014 1338.16 399.398 1341.52 396.164C1344.99 392.931 1346.84 388.638 1347.06 383.287V333.952H1366.54V417.57H1351.26L1349.75 408.372ZM1352.1 416.586L1350.38 406.148L1349 407.726C1346.08 411.071 1342.56 413.66 1338.44 415.497C1334.32 417.221 1329.7 418.092 1324.56 418.092C1314.92 418.092 1307.42 415.158 1301.94 409.373C1296.46 403.492 1293.64 394.578 1293.64 382.451V334.936H1311.14V382.451C1311.14 388.723 1312.63 393.631 1315.77 397.001C1318.89 400.344 1322.97 401.998 1327.92 401.998C1333.82 401.998 1338.62 400.321 1342.2 396.877C1345.88 393.444 1347.81 388.897 1348.05 383.328L1348.05 383.307V334.936H1365.55V416.586H1352.1ZM1403.72 333.952H1388.44V417.57H1407.92V369.072C1407.92 363.386 1409.71 358.87 1413.3 355.526C1416.99 352.181 1422.7 350.509 1430.43 350.509H1438.82V332.447H1430.43C1425.16 332.447 1420.35 333.395 1415.98 335.29C1412.13 336.906 1408.83 339.253 1406.08 342.332C1405.79 342.652 1405.51 342.981 1405.24 343.317L1403.72 333.952ZM1437.83 333.431H1430.43C1425.29 333.431 1420.61 334.356 1416.38 336.192L1416.37 336.197C1412.26 337.918 1408.81 340.495 1406 343.938L1404.61 345.644L1402.88 334.936H1389.43V416.586H1406.93V369.072C1406.93 363.162 1408.81 358.369 1412.62 354.808L1412.63 354.803L1412.63 354.798C1416.59 351.219 1422.58 349.525 1430.43 349.525H1437.83V333.431Z" fill="#FFBCBC"/>
<path fill-rule="evenodd" clip-rule="evenodd" d="M550.335 331.277C547.872 338.077 546.641 345.882 546.641 354.69V363.386C546.641 372.305 547.872 380.221 550.335 387.133C552.798 393.934 556.213 399.732 560.579 404.526C565.057 409.32 570.431 412.944 576.7 415.396C583.082 417.849 590.135 419.075 597.86 419.075C604.689 419.075 610.846 418.072 616.332 416.065C621.818 413.947 626.576 411.104 630.606 407.536C634.749 403.857 638.051 399.565 640.514 394.659C642.946 389.921 644.628 384.786 645.563 379.254C645.618 378.927 645.67 378.599 645.72 378.27H623.553C621.986 384.959 619.019 390.311 614.653 394.324C610.287 398.338 604.689 400.345 597.86 400.345C593.493 400.345 589.463 399.565 585.769 398.004C582.074 396.443 578.883 394.157 576.196 391.147C573.622 388.025 571.55 384.179 569.983 379.608C568.528 374.925 567.8 369.518 567.8 363.386V354.69C567.8 342.314 570.543 333.06 576.029 326.928C581.626 320.796 588.903 317.73 597.86 317.73C601.33 317.73 604.465 318.232 607.264 319.236C610.063 320.239 612.526 321.577 614.653 323.249C616.78 324.922 618.571 326.928 620.027 329.27C621.482 331.5 622.658 333.896 623.553 336.461H645.72C645.662 336.132 645.602 335.804 645.537 335.477C644.598 330.718 642.924 326.252 640.514 322.079C638.051 317.507 634.805 313.55 630.774 310.205C626.744 306.749 621.93 304.017 616.332 302.01C610.846 300.003 604.689 299 597.86 299C590.247 299 583.25 300.282 576.868 302.846C570.599 305.299 565.225 308.923 560.747 313.717C556.269 318.511 552.798 324.364 550.335 331.277ZM644.53 335.477C643.605 330.894 641.981 326.592 639.658 322.569L639.651 322.556L639.644 322.544C637.241 318.085 634.076 314.225 630.142 310.961L630.136 310.955L630.13 310.95C626.201 307.581 621.495 304.907 615.997 302.936L615.991 302.934C610.631 300.973 604.592 299.984 597.86 299.984C590.36 299.984 583.49 301.246 577.238 303.759L577.229 303.762C571.094 306.162 565.845 309.703 561.47 314.387C557.094 319.071 553.689 324.804 551.266 331.605L551.264 331.61C548.847 338.284 547.628 345.972 547.628 354.69V363.386C547.628 372.215 548.848 380.016 551.265 386.802C553.689 393.493 557.039 399.173 561.306 403.86C565.679 408.54 570.926 412.079 577.057 414.479C583.311 416.883 590.241 418.092 597.86 418.092C604.589 418.092 610.626 417.104 615.984 415.144C621.366 413.066 626.017 410.283 629.949 406.801C633.999 403.205 637.224 399.012 639.631 394.219L639.635 394.211C641.994 389.615 643.637 384.631 644.561 379.254H624.33C622.681 385.754 619.688 391.035 615.323 395.047C610.747 399.254 604.897 401.329 597.86 401.329C593.373 401.329 589.21 400.526 585.383 398.91C581.552 397.291 578.242 394.919 575.458 391.801L575.445 391.786L575.433 391.771C572.77 388.543 570.647 384.587 569.048 379.926L569.044 379.912L569.039 379.899C567.548 375.102 566.812 369.593 566.812 363.386V354.69C566.812 342.191 569.579 332.658 575.291 326.274L575.298 326.267C581.098 319.913 588.649 316.747 597.86 316.747C601.426 316.747 604.676 317.262 607.598 318.31C610.488 319.346 613.046 320.733 615.265 322.477C617.481 324.22 619.347 326.31 620.861 328.743C622.232 330.845 623.361 333.09 624.248 335.477H644.53ZM665.355 373.253C662.332 375.594 660.093 378.548 658.638 382.116C657.294 385.572 656.622 389.475 656.622 393.823C656.622 401.739 658.973 407.927 663.675 412.386C668.378 416.845 675.263 419.075 684.331 419.075C690.265 419.075 695.526 417.961 700.117 415.731C704.396 413.701 707.933 410.841 710.729 407.149C711.005 406.785 711.274 406.412 711.536 406.031L713.551 417.57H728.833V360.71C728.833 352.125 726.034 345.269 720.436 340.14C714.839 335.011 706.443 332.447 695.247 332.447C683.491 332.447 674.759 334.9 669.049 339.806C663.699 344.387 660.701 350.192 660.056 357.218C660.025 357.543 660.001 357.871 659.981 358.201H681.14C681.588 355.303 682.876 352.961 685.003 351.178C687.13 349.394 690.545 348.502 695.247 348.502C700.285 348.502 703.867 349.561 705.994 351.679C708.234 353.686 709.353 356.696 709.353 360.71V365.727H695.247C688.193 365.727 682.204 366.396 677.278 367.734C672.464 368.96 668.489 370.8 665.355 373.253ZM706.675 350.965C709.172 353.216 710.341 356.527 710.341 360.71V366.711H695.247C688.251 366.711 682.354 367.375 677.538 368.683L677.531 368.685L677.523 368.687C672.81 369.888 668.969 371.676 665.965 374.026L665.961 374.029C663.079 376.262 660.947 379.073 659.556 382.479C658.265 385.802 657.61 389.579 657.61 393.823C657.61 401.534 659.893 407.44 664.357 411.674C668.813 415.9 675.415 418.092 684.331 418.092C690.139 418.092 695.249 417.001 699.684 414.846L699.692 414.842C704.239 412.687 707.91 409.567 710.721 405.475L712.093 403.478L714.382 416.586H727.845V360.71C727.845 352.36 725.133 345.78 719.768 340.864C714.422 335.966 706.309 333.431 695.247 333.431C683.602 333.431 675.148 335.865 669.694 340.55L669.693 340.551C664.565 344.944 661.688 350.482 661.048 357.218H680.317C680.907 354.474 682.256 352.195 684.367 350.425C686.759 348.419 690.46 347.518 695.247 347.518C700.367 347.518 704.268 348.584 706.675 350.965ZM696.625 402.427L696.615 402.431C693.91 403.485 690.932 404.004 687.69 404.004C684.154 404.004 681.254 403.062 679.12 401.061L679.109 401.051L679.099 401.04C677.087 399.037 676.122 396.371 676.122 393.154C676.122 389.1 677.574 385.802 680.508 383.367C683.476 380.905 688.482 379.795 695.247 379.795H710.341V383.287C710.341 386.104 709.75 388.758 708.566 391.235C707.396 393.681 705.818 395.891 703.838 397.863L703.828 397.874L703.817 397.884C701.818 399.758 699.418 401.269 696.635 402.424L696.625 402.427ZM695.247 380.778C688.529 380.778 683.827 381.893 681.14 384.123C678.453 386.353 677.11 389.363 677.11 393.154C677.11 396.164 678.006 398.561 679.797 400.345C681.7 402.128 684.331 403.021 687.69 403.021C690.825 403.021 693.68 402.519 696.254 401.516C698.941 400.401 701.236 398.951 703.139 397.167C705.043 395.272 706.554 393.154 707.674 390.812C708.793 388.471 709.353 385.963 709.353 383.287V380.778H695.247ZM765.027 333.952H749.745V417.57H769.225V369.072C769.225 363.386 771.017 358.87 774.599 355.526C778.294 352.181 784.003 350.509 791.728 350.509H800.125V332.447H791.728C786.467 332.447 781.652 333.395 777.286 335.29C773.433 336.906 770.131 339.253 767.38 342.332C767.094 342.652 766.813 342.981 766.538 343.317L765.027 333.952ZM799.137 333.431H791.728C786.588 333.431 781.91 334.356 777.681 336.192L777.67 336.197C773.565 337.918 770.114 340.495 767.306 343.938L765.914 345.644L764.185 334.936H750.733V416.586H768.238V369.072C768.238 363.162 770.109 358.369 773.924 354.808L773.929 354.803L773.935 354.798C777.889 351.219 783.888 349.525 791.728 349.525H799.137V333.431ZM821.292 409.851C825.869 414.297 832.416 416.586 841.081 416.586H847.818V401.496H844.608C840.532 401.496 837.313 400.451 835.157 398.178C833.004 395.907 832.033 392.43 832.033 387.969V301.489H814.528V389.976C814.528 398.721 816.829 405.295 821.292 409.851ZM820.594 410.546C815.892 405.752 813.54 398.896 813.54 389.976V300.505H833.021V387.969C833.021 392.318 833.972 395.495 835.875 397.502C837.778 399.509 840.689 400.512 844.608 400.512H848.806V417.57H841.081C832.236 417.57 825.407 415.229 820.594 410.546ZM865.921 373.253C862.898 375.594 860.66 378.548 859.204 382.116C857.861 385.572 857.189 389.475 857.189 393.823C857.189 401.739 859.54 407.927 864.242 412.386C868.944 416.845 875.829 419.075 884.897 419.075C890.831 419.075 896.094 417.961 900.683 415.731C904.962 413.701 908.5 410.841 911.295 407.149C911.572 406.785 911.841 406.412 912.102 406.031L914.118 417.57H929.399V360.71C929.399 352.125 926.601 345.269 921.003 340.14C915.406 335.011 907.009 332.447 895.813 332.447C884.058 332.447 875.325 334.9 869.616 339.806C864.266 344.387 861.269 350.192 860.622 357.218C860.592 357.543 860.567 357.871 860.547 358.201H881.707C882.155 355.303 883.442 352.961 885.569 351.178C887.697 349.394 891.111 348.502 895.813 348.502C900.851 348.502 904.434 349.561 906.561 351.679C908.8 353.686 909.919 356.696 909.919 360.71V365.727H895.813C888.76 365.727 882.771 366.396 877.844 367.734C873.031 368.96 869.057 370.8 865.921 373.253ZM907.241 350.965C909.738 353.216 910.907 356.527 910.907 360.71V366.711H895.813C888.817 366.711 882.921 367.375 878.104 368.683L878.097 368.685L878.089 368.687C873.376 369.888 869.536 371.676 866.532 374.026L866.528 374.029C863.645 376.262 861.514 379.073 860.123 382.479C858.832 385.802 858.177 389.579 858.177 393.823C858.177 401.534 860.46 407.44 864.924 411.674C869.38 415.9 875.981 418.092 884.897 418.092C890.706 418.092 895.815 417.001 900.25 414.846L900.258 414.842C904.805 412.687 908.476 409.567 911.287 405.475L912.66 403.478L914.948 416.586H928.411V360.71C928.411 352.36 925.701 345.78 920.334 340.864C914.989 335.966 906.876 333.431 895.813 333.431C884.168 333.431 875.715 335.865 870.261 340.55L870.26 340.551C865.131 344.944 862.254 350.482 861.614 357.218H880.884C881.474 354.474 882.822 352.195 884.933 350.425C887.326 348.419 891.026 347.518 895.813 347.518C900.933 347.518 904.836 348.584 907.241 350.965ZM897.191 402.427L897.181 402.431C894.476 403.485 891.498 404.004 888.256 404.004C884.721 404.004 881.82 403.062 879.687 401.061L879.676 401.051L879.665 401.04C877.654 399.037 876.689 396.371 876.689 393.154C876.689 389.1 878.141 385.802 881.075 383.367C884.042 380.905 889.048 379.795 895.813 379.795H910.907V383.287C910.907 386.104 910.316 388.758 909.132 391.235C907.962 393.681 906.385 395.891 904.404 397.863L904.394 397.874L904.383 397.884C902.384 399.758 899.985 401.269 897.201 402.424L897.191 402.427ZM903.706 397.167C901.803 398.951 899.508 400.401 896.821 401.516C894.246 402.519 891.391 403.021 888.256 403.021C884.897 403.021 882.267 402.128 880.363 400.345C878.572 398.561 877.676 396.164 877.676 393.154C877.676 389.363 879.02 386.353 881.707 384.123C884.394 381.893 889.096 380.778 895.813 380.778H909.919V383.287C909.919 385.963 909.36 388.471 908.24 390.812C907.121 393.154 905.609 395.272 903.706 397.167Z" fill="#FFBCBC"/>
</g>
<g clip-path="url(#clip4_1_164)">
<path d="M29.9841 526.4L23.4177 509.44V600H4.19922V488H33.027L58.0111 548.64L82.9952 488H111.502V600H92.2841V509.28L85.5577 526.4L67.4602 570.4H48.2417L29.9841 526.4Z" fill="#FFBCBC"/>
<path d="M166.687 601.44C154.622 601.44 145.173 598.027 138.34 591.2C131.613 584.373 128.25 574.827 128.25 562.56V557.44C128.25 551.36 129.105 545.92 130.812 541.12C132.628 536.32 135.191 532.267 138.5 528.96C141.917 525.547 145.974 522.987 150.671 521.28C155.37 519.467 160.708 518.56 166.687 518.56C178.753 518.56 188.148 521.973 194.874 528.8C201.708 535.627 205.124 545.173 205.124 557.44V562.56C205.124 568.64 204.217 574.08 202.401 578.88C200.694 583.68 198.131 587.787 194.714 591.2C191.405 594.507 187.347 597.067 182.542 598.88C177.845 600.587 172.56 601.44 166.687 601.44ZM166.687 584.16C172.773 584.16 177.417 582.4 180.62 578.88C183.931 575.36 185.585 569.92 185.585 562.56V557.44C185.585 550.187 183.877 544.8 180.46 541.28C177.151 537.653 172.56 535.84 166.687 535.84C160.601 535.84 155.903 537.6 152.593 541.12C149.39 544.64 147.789 550.08 147.789 557.44V562.56C147.789 569.813 149.444 575.253 152.753 578.88C156.171 582.4 160.815 584.16 166.687 584.16Z" fill="#FFBCBC"/>
<path d="M248.014 601.44C243.317 601.44 239.046 600.64 235.202 599.04C231.358 597.44 227.995 595.04 225.112 591.84C222.337 588.533 220.147 584.48 218.546 579.68C217.051 574.773 216.304 569.067 216.304 562.56V557.44C216.304 551.04 217.104 545.44 218.706 540.64C220.308 535.84 222.497 531.787 225.272 528.48C228.155 525.173 231.518 522.72 235.362 521.12C239.206 519.413 243.424 518.56 248.014 518.56C257.944 518.56 265.738 521.707 271.397 528V488H289.975V600H275.401L273.639 589.28C270.863 593.333 267.287 596.373 262.909 598.4C258.531 600.427 253.567 601.44 248.014 601.44ZM253.62 584.16C258.639 584.16 262.803 582.453 266.112 579.04C269.422 575.52 271.184 570.4 271.397 563.68V557.44C271.397 550.4 269.689 545.067 266.272 541.44C262.963 537.707 258.745 535.84 253.62 535.84C247.961 535.84 243.584 537.547 240.487 540.96C237.391 544.267 235.843 549.76 235.843 557.44V562.56C235.843 569.92 237.444 575.36 240.647 578.88C243.85 582.4 248.174 584.16 253.62 584.16Z" fill="#FFBCBC"/>
<path d="M343.557 601.44C337.792 601.44 332.614 600.587 328.022 598.88C323.432 597.067 319.481 594.507 316.171 591.2C312.862 587.787 310.299 583.68 308.484 578.88C306.776 574.08 305.921 568.64 305.921 562.56V557.44C305.921 551.36 306.776 545.92 308.484 541.12C310.299 536.32 312.862 532.267 316.171 528.96C319.481 525.547 323.432 522.987 328.022 521.28C332.614 519.467 337.792 518.56 343.557 518.56C355.196 518.56 364.378 522.133 371.104 529.28C377.83 536.427 381.194 546.667 381.194 560V566.24H324.499C325.034 572.96 326.901 577.813 330.104 580.8C333.308 583.68 337.792 585.12 343.557 585.12C349.217 585.12 353.327 584.16 355.889 582.24C358.559 580.213 360.321 577.867 361.174 575.2H380.393C379.539 578.933 378.205 582.4 376.389 585.6C374.574 588.8 372.172 591.573 369.182 593.92C366.193 596.267 362.563 598.133 358.292 599.52C354.022 600.8 349.11 601.44 343.557 601.44ZM343.557 534.88C338.112 534.88 333.842 536.213 330.745 538.88C327.649 541.547 325.674 545.76 324.819 551.52H362.296C361.549 545.547 359.573 541.28 356.37 538.72C353.274 536.16 349.003 534.88 343.557 534.88Z" fill="#FFBCBC"/>
<path d="M397.216 520H411.79L413.232 528.96C416.007 525.547 419.424 522.987 423.482 521.28C427.646 519.467 432.236 518.56 437.255 518.56H445.263V535.84H437.255C429.888 535.84 424.442 537.44 420.919 540.64C417.502 543.84 415.794 548.16 415.794 553.6V600H397.216V520Z" fill="#FFBCBC"/>
<path d="M458.056 520H472.63L474.071 528.96C480.05 522.027 488.325 518.56 498.895 518.56C508.718 518.56 516.352 521.493 521.797 527.36C527.35 533.12 530.125 541.867 530.125 553.6V600H511.547V553.6C511.547 547.733 510.106 543.307 507.223 540.32C504.448 537.333 500.604 535.84 495.692 535.84C489.927 535.84 485.335 537.387 481.919 540.48C478.609 543.573 476.847 547.68 476.634 552.8V600H458.056V520Z" fill="#FFBCBC"/>
<path d="M550.976 488H570.195V583.04H619.843V600H550.976V488Z" fill="#FFBCBC"/>
<path d="M663.866 601.44C658.101 601.44 652.923 600.587 648.331 598.88C643.741 597.067 639.79 594.507 636.48 591.2C633.171 587.787 630.608 583.68 628.793 578.88C627.085 574.08 626.23 568.64 626.23 562.56V557.44C626.23 551.36 627.085 545.92 628.793 541.12C630.608 536.32 633.171 532.267 636.48 528.96C639.79 525.547 643.741 522.987 648.331 521.28C652.923 519.467 658.101 518.56 663.866 518.56C675.505 518.56 684.686 522.133 691.413 529.28C698.139 536.427 701.503 546.667 701.503 560V566.24H644.808C645.342 572.96 647.21 577.813 650.413 580.8C653.616 583.68 658.101 585.12 663.866 585.12C669.526 585.12 673.636 584.16 676.198 582.24C678.868 580.213 680.629 577.867 681.483 575.2H700.702C699.848 578.933 698.514 582.4 696.698 585.6C694.883 588.8 692.481 591.573 689.491 593.92C686.502 596.267 682.872 598.133 678.601 599.52C674.33 600.8 669.419 601.44 663.866 601.44ZM663.866 534.88C658.421 534.88 654.151 536.213 651.054 538.88C647.958 541.547 645.983 545.76 645.128 551.52H682.604C681.858 545.547 679.882 541.28 676.679 538.72C673.583 536.16 669.312 534.88 663.866 534.88Z" fill="#FFBCBC"/>
<path d="M744.431 598.24C739.732 598.24 735.462 597.493 731.619 596C727.775 594.4 724.412 592.053 721.529 588.96C718.752 585.867 716.564 582.027 714.963 577.44C713.467 572.747 712.72 567.253 712.72 560.96V555.84C712.72 549.867 713.521 544.587 715.123 540C716.724 535.307 718.912 531.413 721.689 528.32C724.572 525.12 727.935 522.72 731.779 521.12C735.623 519.413 739.84 518.56 744.431 518.56C755.748 518.56 764.29 522.56 770.056 530.56L771.817 520H786.391V600C786.391 611.093 783.509 619.413 777.743 624.96C771.978 630.613 763.009 633.44 750.837 633.44C745.178 633.44 740.267 632.853 736.103 631.68C732.045 630.507 728.629 628.8 725.853 626.56C723.076 624.32 720.941 621.547 719.447 618.24C718.059 615.04 717.151 611.36 716.724 607.2H735.302C736.156 610.933 737.705 613.76 739.947 615.68C742.189 617.6 745.818 618.56 750.837 618.56C756.603 618.56 760.873 617.067 763.65 614.08C766.425 611.2 767.814 606.507 767.814 600V588.8C764.931 591.893 761.513 594.24 757.564 595.84C753.613 597.44 749.236 598.24 744.431 598.24ZM750.036 580.96C755.161 580.96 759.378 579.2 762.689 575.68C766.105 572.16 767.814 567.253 767.814 560.96V555.84C767.814 549.547 766.105 544.64 762.689 541.12C759.378 537.6 755.161 535.84 750.036 535.84C744.377 535.84 740 537.493 736.904 540.8C733.807 544 732.259 549.013 732.259 555.84V560.96C732.259 567.573 733.861 572.587 737.064 576C740.267 579.307 744.591 580.96 750.036 580.96Z" fill="#FFBCBC"/>
<path d="M827.963 601.44C819.314 601.44 812.748 599.307 808.264 595.04C803.779 590.773 801.537 584.853 801.537 577.28C801.537 573.12 802.178 569.387 803.459 566.08C804.847 562.667 806.982 559.84 809.865 557.6C812.855 555.253 816.645 553.493 821.236 552.32C825.934 551.04 831.646 550.4 838.373 550.4H851.826V545.6C851.826 541.76 850.758 538.88 848.622 536.96C846.594 534.933 843.177 533.92 838.373 533.92C833.888 533.92 830.632 534.773 828.603 536.48C826.574 538.187 825.347 540.427 824.92 543.2H804.74C805.168 536.053 808.05 530.187 813.388 525.6C818.834 520.907 827.162 518.56 838.373 518.56C849.05 518.56 857.058 521.013 862.396 525.92C867.734 530.827 870.404 537.387 870.404 545.6V600H855.829L853.908 588.96C851.132 593.013 847.501 596.107 843.017 598.24C838.64 600.373 833.621 601.44 827.963 601.44ZM831.166 586.08C834.156 586.08 836.878 585.6 839.334 584.64C841.896 583.573 844.085 582.187 845.9 580.48C847.715 578.667 849.156 576.64 850.224 574.4C851.292 572.16 851.826 569.76 851.826 567.2V564.8H838.373C831.966 564.8 827.482 565.867 824.92 568C822.357 570.133 821.076 573.013 821.076 576.64C821.076 579.52 821.93 581.813 823.638 583.52C825.453 585.227 827.963 586.08 831.166 586.08Z" fill="#FFBCBC"/>
<path d="M923.179 601.44C917.414 601.44 912.182 600.587 907.484 598.88C902.893 597.067 898.943 594.507 895.633 591.2C892.43 587.787 889.92 583.68 888.106 578.88C886.397 574.08 885.543 568.64 885.543 562.56V557.44C885.543 551.467 886.397 546.08 888.106 541.28C889.92 536.48 892.483 532.427 895.793 529.12C899.103 525.707 903.053 523.093 907.644 521.28C912.342 519.467 917.521 518.56 923.179 518.56C933.322 518.56 941.17 521.067 946.722 526.08C952.381 531.093 956.011 537.6 957.613 545.6H937.753C936.9 542.72 935.138 540.373 932.468 538.56C929.799 536.747 926.436 535.84 922.379 535.84C920.029 535.84 917.787 536.267 915.652 537.12C913.623 537.867 911.808 539.147 910.207 540.96C908.605 542.667 907.324 544.907 906.363 547.68C905.509 550.347 905.082 553.6 905.082 557.44V562.56C905.082 566.293 905.562 569.547 906.523 572.32C907.484 574.987 908.765 577.227 910.367 579.04C911.969 580.747 913.783 582.027 915.812 582.88C917.947 583.733 920.136 584.16 922.379 584.16C926.97 584.16 930.439 583.147 932.789 581.12C935.244 579.093 936.9 576.587 937.753 573.6H957.613C956.011 582.027 952.381 588.8 946.722 593.92C941.17 598.933 933.322 601.44 923.179 601.44Z" fill="#FFBCBC"/>
<path d="M990.66 600L958.469 520H978.649L1000.43 577.28L1020.93 520H1040.15L997.707 632H978.489L990.66 600Z" fill="#FFBCBC"/>
</g>
<g clip-path="url(#clip5_1_164)">
<path fill-rule="evenodd" clip-rule="evenodd" d="M32.8557 488H4V600H23.2371V509.44L29.8098 526.4L48.085 570.4H67.3221L85.4371 526.4L92.1701 509.28V600H111.407V488H82.8721L57.8639 548.64L32.8557 488ZM83.5432 489L57.8639 551.267L32.1846 489H5.00193V599H22.2352V509.44L24.1716 509.079L30.7399 526.028L48.7543 569.4H66.6506L84.5044 526.035L91.2374 508.915L93.172 509.28V599H110.405V489H83.5432ZM150.614 521.28C145.912 522.987 141.851 525.547 138.43 528.96C135.118 532.267 132.553 536.32 130.735 541.12C129.026 545.92 128.17 551.36 128.17 557.44V562.56C128.17 574.827 131.537 584.373 138.27 591.2C145.11 598.027 154.568 601.44 166.645 601.44C172.523 601.44 177.813 600.587 182.515 598.88C187.325 597.067 191.386 594.507 194.699 591.2C198.119 587.787 200.684 583.68 202.394 578.88C204.211 574.08 205.119 568.64 205.119 562.56V557.44C205.119 545.173 201.699 535.627 194.859 528.8C188.126 521.973 178.722 518.56 166.645 518.56C160.66 518.56 155.317 519.467 150.614 521.28ZM182.169 597.942C186.855 596.174 190.789 593.688 193.99 590.493C197.3 587.19 199.787 583.213 201.45 578.545L201.453 578.536L201.457 578.527C203.223 573.858 204.117 568.541 204.117 562.56V557.44C204.117 545.363 200.755 536.099 194.151 529.507L194.146 529.501C187.646 522.912 178.527 519.56 166.645 519.56C160.761 519.56 155.543 520.451 150.975 522.213L150.965 522.216L150.956 522.22C146.387 523.878 142.452 526.361 139.139 529.667C135.938 532.862 133.448 536.788 131.676 541.464C130.014 546.136 129.172 551.457 129.172 557.44V562.56C129.172 574.639 132.483 583.905 138.981 590.496C145.589 597.089 154.766 600.44 166.645 600.44C172.424 600.44 177.594 599.601 182.169 597.942ZM152.537 541.12C155.851 537.6 160.553 535.84 166.645 535.84C172.523 535.84 177.119 537.653 180.431 541.28C183.852 544.8 185.561 550.187 185.561 557.44V562.56C185.561 569.92 183.905 575.36 180.592 578.88C177.385 582.4 172.736 584.16 166.645 584.16C160.767 584.16 156.118 582.4 152.698 578.88C149.385 575.253 147.728 569.813 147.728 562.56V557.44C147.728 550.08 149.331 544.64 152.537 541.12ZM181.328 579.559C177.882 583.338 172.932 585.16 166.645 585.16C160.553 585.16 155.623 583.328 151.978 579.576L151.968 579.565L151.957 579.554C148.412 575.672 146.726 569.946 146.726 562.56V557.44C146.726 549.962 148.351 544.23 151.796 540.447L151.802 540.441L151.807 540.435C155.357 536.665 160.353 534.84 166.645 534.84C172.738 534.84 177.623 536.728 181.162 540.595C184.826 544.374 186.563 550.057 186.563 557.44V562.56C186.563 570.041 184.884 575.777 181.328 579.559ZM270.454 526.942C264.884 521.354 257.417 518.56 248.051 518.56C243.455 518.56 239.234 519.413 235.386 521.12C231.539 522.72 228.172 525.173 225.287 528.48C222.508 531.787 220.317 535.84 218.714 540.64C217.111 545.44 216.309 551.04 216.309 557.44V562.56C216.309 569.067 217.058 574.773 218.554 579.68C220.157 584.48 222.348 588.533 225.126 591.84C228.012 595.04 231.379 597.44 235.226 599.04C239.073 600.64 243.349 601.44 248.051 601.44C253.608 601.44 258.578 600.427 262.959 598.4C266.918 596.569 270.222 593.911 272.874 590.425C273.156 590.053 273.432 589.671 273.7 589.28L275.464 600H290.052V488H271.456V528C271.129 527.637 270.795 527.284 270.454 526.942ZM272.458 489V530.61L270.71 528.668C265.27 522.623 257.759 519.56 248.051 519.56C243.582 519.56 239.501 520.389 235.793 522.034L235.782 522.039L235.772 522.043C232.077 523.58 228.837 525.936 226.048 529.13C223.366 532.324 221.233 536.259 219.665 540.956C218.103 545.631 217.311 551.12 217.311 557.44V562.56C217.311 568.988 218.05 574.588 219.509 579.376C221.076 584.065 223.206 587.994 225.883 591.184C228.67 594.271 231.912 596.578 235.612 598.117C239.322 599.66 243.464 600.44 248.051 600.44C253.484 600.44 258.306 599.45 262.539 597.493C266.753 595.543 270.194 592.623 272.874 588.715L274.284 586.657L276.314 599H289.05V489H272.458ZM266.891 579.73L266.885 579.736C263.372 583.355 258.939 585.16 253.661 585.16C247.974 585.16 243.36 583.312 239.935 579.553C236.49 575.77 234.865 570.038 234.865 562.56V557.44C234.865 549.675 236.423 543.868 239.779 540.283C243.11 536.618 247.787 534.84 253.661 534.84C259.064 534.84 263.559 536.819 267.066 540.766C270.714 544.642 272.458 550.258 272.458 557.44V563.696L272.457 563.712C272.238 570.58 270.432 575.968 266.896 579.725L266.891 579.73ZM266.326 541.44C263.013 537.707 258.791 535.84 253.661 535.84C247.998 535.84 243.615 537.547 240.516 540.96C237.417 544.267 235.867 549.76 235.867 557.44V562.56C235.867 569.92 237.47 575.36 240.676 578.88C243.883 582.4 248.211 584.16 253.661 584.16C258.684 584.16 262.852 582.453 266.166 579.04C269.479 575.52 271.242 570.4 271.456 563.68V557.44C271.456 550.4 269.746 545.067 266.326 541.44ZM316.273 528.96C312.961 532.267 310.396 536.32 308.578 541.12C306.869 545.92 306.013 551.36 306.013 557.44V562.56C306.013 568.64 306.869 574.08 308.578 578.88C310.396 583.68 312.961 587.787 316.273 591.2C319.587 594.507 323.541 597.067 328.136 598.88C332.732 600.587 337.915 601.44 343.686 601.44C349.244 601.44 354.16 600.8 358.435 599.52C362.71 598.133 366.344 596.267 369.336 593.92C372.328 591.573 374.733 588.8 376.549 585.6C378.204 582.688 379.458 579.554 380.316 576.2C380.4 575.869 380.481 575.535 380.557 575.2H361.32C360.466 577.867 358.702 580.213 356.03 582.24C353.465 584.16 349.351 585.12 343.686 585.12C337.915 585.12 333.426 583.68 330.22 580.8C327.175 577.964 325.336 573.444 324.701 567.24C324.666 566.911 324.636 566.578 324.609 566.24H381.359V560C381.359 546.667 377.992 536.427 371.259 529.28C364.526 522.133 355.336 518.56 343.686 518.56C337.915 518.56 332.732 519.467 328.136 521.28C323.541 522.987 319.587 525.547 316.273 528.96ZM380.357 565.24V560C380.357 546.828 377.033 536.868 370.53 529.965C364.021 523.056 355.114 519.56 343.686 519.56C338.02 519.56 332.965 520.45 328.505 522.21L328.495 522.214L328.486 522.217C324.026 523.874 320.199 526.353 316.993 529.656L316.988 529.661L316.982 529.667C313.781 532.862 311.291 536.788 309.519 541.464C307.857 546.136 307.015 551.457 307.015 557.44V562.56C307.015 568.543 307.857 573.864 309.519 578.536C311.291 583.211 313.781 587.193 316.987 590.497C320.194 593.698 324.026 596.182 328.495 597.946C332.958 599.602 338.018 600.44 343.686 600.44C349.165 600.44 353.977 599.809 358.136 598.565C362.314 597.209 365.835 595.394 368.716 593.134C371.61 590.865 373.927 588.19 375.678 585.107C377.246 582.346 378.447 579.378 379.281 576.2H362.031C361.032 578.806 359.213 581.082 356.636 583.036L356.631 583.04C353.804 585.157 349.42 586.12 343.686 586.12C337.753 586.12 332.995 584.638 329.55 581.543L329.544 581.537L329.537 581.531C326.07 578.302 324.154 573.158 323.61 566.319L323.525 565.24H380.357ZM323.769 552.52L323.939 551.374C324.815 545.476 326.862 541.001 330.207 538.123C333.542 535.254 338.076 533.88 343.686 533.88C349.284 533.88 353.811 535.194 357.144 537.944C360.628 540.73 362.672 545.288 363.437 551.396L363.578 552.52H323.769ZM356.511 538.72C353.412 536.16 349.137 534.88 343.686 534.88C338.236 534.88 333.961 536.213 330.861 538.88C327.945 541.39 326.022 545.27 325.092 550.52C325.034 550.848 324.98 551.181 324.93 551.52H362.442C362.4 551.181 362.354 550.848 362.303 550.52C361.466 545.068 359.536 541.135 356.511 538.72ZM411.984 520H397.396V600H415.992V553.6C415.992 548.16 417.702 543.84 421.122 540.64C424.648 537.44 430.099 535.84 437.473 535.84H445.488V518.56H437.473C432.45 518.56 427.854 519.467 423.687 521.28C420.032 522.816 416.897 525.043 414.281 527.96C413.99 528.285 413.705 528.618 413.427 528.96L411.984 520ZM444.487 519.56H437.473C432.574 519.56 428.116 520.444 424.087 522.197L424.076 522.202C420.166 523.845 416.879 526.305 414.205 529.591L412.793 531.325L411.13 521H398.398V599H414.99V553.6C414.99 547.933 416.781 543.331 420.437 539.91L420.442 539.905L420.448 539.9C424.237 536.462 429.982 534.84 437.473 534.84H444.487V519.56ZM472.883 520H458.295V600H476.891V552.8C477.104 547.68 478.868 543.573 482.181 540.48C485.601 537.387 490.197 535.84 495.968 535.84C500.883 535.84 504.731 537.333 507.51 540.32C510.396 543.307 511.838 547.733 511.838 553.6V600H530.434V553.6C530.434 541.867 527.655 533.12 522.098 527.36C516.648 521.493 509.006 518.56 499.174 518.56C489.092 518.56 481.096 521.708 475.187 528.004C474.894 528.315 474.608 528.633 474.326 528.96L472.883 520ZM529.432 599V553.6C529.432 542.005 526.685 533.556 521.376 528.054L521.37 528.047L521.363 528.04C516.144 522.422 508.796 519.56 499.174 519.56C488.835 519.56 480.85 522.935 475.085 529.613L473.679 531.242L472.03 521H459.297V599H475.889V552.779L475.89 552.758C476.113 547.414 477.966 543.046 481.497 539.75L481.502 539.744L481.508 539.739C485.155 536.44 490.012 534.84 495.968 534.84C501.097 534.84 505.232 536.406 508.238 539.632C511.362 542.871 512.84 547.586 512.84 553.6V599H529.432ZM570.543 583.04V488H551.306V600H620.239V583.04H570.543ZM619.237 584.04H569.541V489H552.307V599H619.237V584.04ZM636.892 528.96C633.579 532.267 631.014 536.32 629.197 541.12C627.488 545.92 626.632 551.36 626.632 557.44V562.56C626.632 568.64 627.488 574.08 629.197 578.88C631.014 583.68 633.579 587.787 636.892 591.2C640.205 594.507 644.16 597.067 648.755 598.88C653.35 600.587 658.533 601.44 664.305 601.44C669.862 601.44 674.779 600.8 679.053 599.52C683.328 598.133 686.962 596.267 689.954 593.92C692.947 591.573 695.351 588.8 697.168 585.6C698.822 582.688 700.076 579.554 700.934 576.2C701.018 575.869 701.099 575.535 701.176 575.2H681.938C681.084 577.867 679.32 580.213 676.648 582.24C674.083 584.16 669.969 585.12 664.305 585.12C658.533 585.12 654.045 583.68 650.839 580.8C647.794 577.964 645.954 573.444 645.319 567.24C645.285 566.911 645.255 566.578 645.228 566.24H701.977V560C701.977 546.667 698.611 536.427 691.878 529.28C685.145 522.133 675.954 518.56 664.305 518.56C658.533 518.56 653.35 519.467 648.755 521.28C644.16 522.987 640.205 525.547 636.892 528.96ZM700.975 565.24V560C700.975 546.828 697.652 536.868 691.148 529.965C684.64 523.056 675.733 519.56 664.305 519.56C658.639 519.56 653.584 520.45 649.123 522.21L649.113 522.214L649.104 522.217C644.645 523.874 640.817 526.353 637.611 529.656L637.606 529.661L637.6 529.667C634.4 532.862 631.909 536.787 630.139 541.463C628.475 546.135 627.634 551.456 627.634 557.44V562.56C627.634 568.544 628.475 573.865 630.139 578.537C631.909 583.212 634.4 587.194 637.605 590.498C640.812 593.698 644.645 596.182 649.113 597.946C653.577 599.602 658.637 600.44 664.305 600.44C669.783 600.44 674.595 599.809 678.754 598.565C682.932 597.209 686.453 595.394 689.335 593.134C692.228 590.865 694.546 588.19 696.296 585.107C697.864 582.346 699.066 579.378 699.899 576.2H682.649C681.65 578.806 679.831 581.082 677.254 583.036L677.249 583.04C674.422 585.157 670.039 586.12 664.305 586.12C658.371 586.12 653.613 584.638 650.168 581.543L650.162 581.537L650.155 581.531C646.689 578.302 644.773 573.158 644.229 566.319L644.144 565.24H700.975ZM644.387 552.52L644.557 551.374C645.433 545.476 647.48 541.001 650.826 538.123C654.16 535.254 658.695 533.88 664.305 533.88C669.902 533.88 674.429 535.194 677.762 537.944C681.246 540.73 683.29 545.288 684.056 551.396L684.196 552.52H644.387ZM677.129 538.72C674.03 536.16 669.755 534.88 664.305 534.88C658.854 534.88 654.58 536.213 651.48 538.88C648.563 541.39 646.64 545.27 645.711 550.52C645.653 550.848 645.598 551.181 645.548 551.52H683.061C683.019 551.181 682.972 550.848 682.921 550.52C682.085 545.068 680.154 541.135 677.129 538.72ZM769.764 529.459C764.015 522.193 755.743 518.56 744.947 518.56C740.351 518.56 736.129 519.413 732.283 521.12C728.434 522.72 725.068 525.12 722.182 528.32C719.404 531.413 717.213 535.307 715.609 540C714.007 544.587 713.205 549.867 713.205 555.84V560.96C713.205 567.253 713.953 572.747 715.45 577.44C717.052 582.027 719.243 585.867 722.023 588.96C724.908 592.053 728.275 594.4 732.121 596C735.969 597.493 740.244 598.24 744.947 598.24C749.756 598.24 754.138 597.44 758.092 595.84C761.598 594.421 764.684 592.416 767.35 589.823C767.691 589.492 768.025 589.151 768.352 588.8V600C768.352 606.507 766.962 611.2 764.183 614.08C761.405 617.067 757.13 618.56 751.358 618.56C746.336 618.56 742.702 617.6 740.457 615.68C738.213 613.76 736.664 610.933 735.808 607.2H717.213C717.248 607.536 717.286 607.87 717.326 608.2C717.791 611.952 718.661 615.299 719.938 618.24C721.435 621.547 723.572 624.32 726.35 626.56C729.13 628.8 732.549 630.507 736.611 631.68C740.778 632.853 745.694 633.44 751.358 633.44C763.543 633.44 772.519 630.613 778.29 624.96C784.061 619.413 786.948 611.093 786.948 600V520H772.36L770.596 530.56C770.325 530.184 770.047 529.817 769.764 529.459ZM773.208 521L771.189 533.093L769.783 531.144C764.229 523.446 756.007 519.56 744.947 519.56C740.478 519.56 736.397 520.389 732.689 522.034L732.678 522.039L732.667 522.043C728.962 523.584 725.718 525.895 722.929 528.987C720.255 531.963 718.126 535.733 716.558 540.323L716.556 540.329C714.997 544.789 714.207 549.954 714.207 555.84V560.96C714.207 567.172 714.945 572.554 716.4 577.124C717.965 581.597 720.091 585.311 722.762 588.286C725.548 591.27 728.791 593.529 732.496 595.072C736.21 596.512 740.356 597.24 744.947 597.24C749.643 597.24 753.895 596.459 757.716 594.913C761.535 593.368 764.833 591.104 767.619 588.119L769.354 586.258V600C769.354 606.607 767.95 611.613 764.911 614.768C761.876 618.026 757.287 619.56 751.358 619.56C746.251 619.56 742.322 618.591 739.806 616.439C737.522 614.485 735.946 611.711 735.023 608.2H718.336C718.794 611.82 719.637 615.028 720.855 617.834C722.287 620.998 724.327 623.644 726.98 625.782C729.638 627.924 732.932 629.576 736.887 630.719C740.943 631.86 745.762 632.44 751.358 632.44C763.411 632.44 772.081 629.641 777.589 624.246L777.596 624.24C783.105 618.945 785.946 610.929 785.946 600V521H773.208ZM737.572 576C734.366 572.587 732.763 567.573 732.763 560.96V555.84C732.763 549.013 734.313 544 737.411 540.8C740.511 537.493 744.893 535.84 750.557 535.84C755.687 535.84 759.909 537.6 763.222 541.12C766.642 544.64 768.352 549.547 768.352 555.84V560.96C768.352 567.253 766.642 572.16 763.222 575.68C759.909 579.2 755.687 580.96 750.557 580.96C745.106 580.96 740.778 579.307 737.572 576ZM736.685 540.111C733.334 543.577 731.761 548.893 731.761 555.84V560.96C731.761 567.722 733.401 573.021 736.841 576.684L736.846 576.69L736.852 576.695C740.281 580.232 744.889 581.96 750.557 581.96C755.942 581.96 760.432 580.101 763.946 576.371C767.591 572.616 769.354 567.434 769.354 560.96V555.84C769.354 549.366 767.591 544.184 763.946 540.429C760.432 536.699 755.942 534.84 750.557 534.84C744.693 534.84 740.018 536.558 736.685 540.111ZM810.444 557.6C807.559 559.84 805.421 562.667 804.032 566.08C802.75 569.387 802.108 573.12 802.108 577.28C802.108 584.853 804.353 590.773 808.841 595.04C813.33 599.307 819.903 601.44 828.559 601.44C834.223 601.44 839.246 600.373 843.628 598.24C847.688 596.31 851.049 593.595 853.71 590.095C853.99 589.725 854.264 589.347 854.529 588.96L856.453 600H871.041V545.6C871.041 537.387 868.369 530.827 863.026 525.92C857.681 521.013 849.666 518.56 838.979 518.56C827.758 518.56 819.422 520.907 813.971 525.6C808.878 529.971 806.019 535.504 805.391 542.2C805.36 542.531 805.334 542.864 805.314 543.2H825.513C825.94 540.427 827.17 538.187 829.201 536.48C831.23 534.773 834.491 533.92 838.979 533.92C843.789 533.92 847.208 534.933 849.239 536.96C851.376 538.88 852.445 541.76 852.445 545.6V550.4H838.979C832.246 550.4 826.528 551.04 821.826 552.32C817.23 553.493 813.436 555.253 810.444 557.6ZM849.929 536.234C852.328 538.402 853.447 541.588 853.447 545.6V551.4H838.979C832.304 551.4 826.681 552.035 822.09 553.285L822.082 553.287L822.075 553.289C817.581 554.436 813.923 556.144 811.064 558.386L811.06 558.389C808.316 560.519 806.287 563.2 804.963 566.449C803.734 569.62 803.11 573.226 803.11 577.28C803.11 584.645 805.285 590.279 809.532 594.316C813.771 598.345 820.057 600.44 828.559 600.44C834.096 600.44 838.964 599.398 843.189 597.341L843.198 597.337C847.528 595.279 851.025 592.301 853.702 588.395L855.094 586.365L857.296 599H870.039V545.6C870.039 537.625 867.456 531.347 862.347 526.656C857.26 521.984 849.532 519.56 838.979 519.56C827.87 519.56 819.816 521.888 814.625 526.357L814.624 526.358C809.756 530.537 807.019 535.799 806.398 542.2H824.68C825.251 539.584 826.541 537.408 828.555 535.715C830.855 533.782 834.404 532.92 838.979 532.92C843.872 532.92 847.616 533.94 849.929 536.234ZM840.316 585.567L840.306 585.571C837.717 586.582 834.866 587.08 831.766 587.08C828.379 587.08 825.596 586.175 823.544 584.248L823.533 584.238L823.523 584.227C821.589 582.297 820.664 579.73 820.664 576.64C820.664 572.746 822.057 569.573 824.872 567.232C827.721 564.862 832.519 563.8 838.979 563.8H853.447V567.2C853.447 569.904 852.881 572.451 851.747 574.83C850.627 577.176 849.117 579.296 847.222 581.187L847.211 581.198L847.2 581.208C845.287 583.006 842.99 584.455 840.326 585.563L840.316 585.567ZM846.514 580.48C844.696 582.187 842.506 583.573 839.941 584.64C837.482 585.6 834.757 586.08 831.766 586.08C828.559 586.08 826.047 585.227 824.231 583.52C822.521 581.813 821.666 579.52 821.666 576.64C821.666 573.013 822.948 570.133 825.513 568C828.078 565.867 832.567 564.8 838.979 564.8H852.445V567.2C852.445 569.76 851.91 572.16 850.842 574.4C849.773 576.64 848.33 578.667 846.514 580.48ZM947.434 526.08C941.876 521.067 934.021 518.56 923.868 518.56C918.203 518.56 913.02 519.467 908.318 521.28C903.722 523.093 899.768 525.707 896.455 529.12C893.142 532.427 890.577 536.48 888.76 541.28C887.05 546.08 886.195 551.467 886.195 557.44V562.56C886.195 568.64 887.05 574.08 888.76 578.88C890.577 583.68 893.089 587.787 896.295 591.2C899.607 594.507 903.562 597.067 908.158 598.88C912.86 600.587 918.097 601.44 923.868 601.44C934.021 601.44 941.876 598.933 947.434 593.92C952.872 589.004 956.438 582.564 958.133 574.6C958.203 574.269 958.27 573.936 958.335 573.6H938.456C937.601 576.587 935.944 579.093 933.487 581.12C931.135 583.147 927.661 584.16 923.067 584.16C920.822 584.16 918.631 583.733 916.494 582.88C914.463 582.027 912.646 580.747 911.043 579.04C909.44 577.227 908.158 574.987 907.196 572.32C906.234 569.547 905.753 566.293 905.753 562.56V557.44C905.753 553.6 906.18 550.347 907.036 547.68C907.997 544.907 909.28 542.667 910.883 540.96C912.486 539.147 914.303 537.867 916.334 537.12C918.471 536.267 920.715 535.84 923.067 535.84C927.127 535.84 930.494 536.747 933.166 538.56C935.837 540.373 937.601 542.72 938.456 545.6H958.335C958.267 545.264 958.196 544.931 958.121 544.6C956.423 537.056 952.86 530.883 947.434 526.08ZM957.094 544.6C955.418 537.345 951.973 531.435 946.768 526.828L946.761 526.822C941.445 522.026 933.861 519.56 923.868 519.56C918.313 519.56 913.256 520.449 908.683 522.211C904.216 523.974 900.384 526.509 897.175 529.816L897.169 529.821L897.164 529.827C893.962 533.022 891.473 536.947 889.701 541.623C888.038 546.297 887.197 551.565 887.197 557.44V562.56C887.197 568.544 888.038 573.865 889.701 578.537C891.474 583.217 893.914 587.201 897.015 590.505C900.221 593.701 904.049 596.181 908.513 597.945C913.086 599.603 918.201 600.44 923.868 600.44C933.861 600.44 941.445 597.974 946.761 593.178C951.978 588.463 955.435 582.287 957.108 574.6H939.194C938.231 577.466 936.538 579.899 934.132 581.884C931.53 584.123 927.785 585.16 923.067 585.16C920.691 585.16 918.375 584.708 916.121 583.809L916.113 583.805L916.105 583.802C913.937 582.89 912.005 581.526 910.312 579.724L910.302 579.713L910.292 579.702C908.592 577.779 907.25 575.424 906.253 572.659L906.249 572.647C905.242 569.744 904.751 566.376 904.751 562.56V557.44C904.751 553.532 905.185 550.169 906.081 547.375L906.085 547.364L906.089 547.353C907.084 544.485 908.426 542.117 910.143 540.286C911.836 538.374 913.78 536.996 915.974 536.187C918.228 535.288 920.595 534.84 923.067 534.84C927.277 534.84 930.853 535.781 933.729 537.733C936.356 539.516 938.188 541.808 939.183 544.6H957.094ZM992.49 599.99L980.684 631H997.776L1039.5 521H1022.41L1001.22 580.171L978.7 521H960.675L992.49 599.99ZM959.192 520H979.391L1001.19 577.28L1021.71 520H1040.95L998.468 632H979.231L991.414 600L959.192 520Z" fill="#FFBCBC"/>
</g>
<g clip-path="url(#clip6_1_164)">
<path fill-rule="evenodd" clip-rule="evenodd" d="M1091.61 506.454V621.07H1114.83V506.454H1156.44V486H1050V506.454H1091.61ZM1050.97 505.489H1092.58V620.106H1113.87V505.489H1155.48V486.965H1050.97V505.489ZM1196.13 486.965H1174.84V620.106H1196.13V486.965ZM1226.95 610C1234.21 617.859 1244.5 621.842 1257.97 621.842C1271.7 621.842 1282.33 617.793 1289.98 609.794C1297.61 601.678 1301.52 589.418 1301.52 572.831V486.965H1280.23V572.831C1280.23 583.065 1278.29 590.627 1274.18 595.268C1270.23 599.884 1264.79 602.161 1257.97 602.161C1251.1 602.161 1245.71 599.955 1241.94 595.446C1238.34 591.135 1236.32 584.839 1235.77 576.69H1214.5C1215.64 591.096 1219.82 602.163 1226.95 610ZM1226.23 610.651C1218.91 602.595 1214.68 591.275 1213.53 576.69C1213.5 576.37 1213.48 576.049 1213.46 575.725H1236.68C1237.59 592.706 1244.68 601.196 1257.97 601.196C1264.55 601.196 1269.71 599.009 1273.45 594.635C1277.33 590.262 1279.26 582.993 1279.26 572.831V486H1302.48V572.831C1302.48 589.554 1298.55 602.096 1290.68 610.458C1282.81 618.69 1271.91 622.807 1257.97 622.807C1244.3 622.807 1233.72 618.755 1226.23 610.651ZM1407.6 574.761L1361.15 486H1328.64V621.07H1351.86V514.751L1359.99 532.31L1406.44 621.07H1438.95V486H1415.73V592.513L1407.6 574.761ZM1416.7 486.965V592.513L1414.85 592.913L1406.73 575.184L1360.57 486.965H1329.61V620.106H1350.9V514.751L1352.74 514.346L1360.86 531.884L1407.03 620.106H1437.99V486.965H1416.7ZM1173.88 486V621.07H1197.1V486H1173.88Z" fill="#FFBCBC"/>
</g>
<g clip-path="url(#clip7_1_164)">
<path d="M1050 486H1156.44V506.454H1114.83V621.07H1091.61V506.454H1050V486Z" fill="#FFBCBC"/>
<path d="M1173.88 486H1197.1V621.07H1173.88V486Z" fill="#FFBCBC"/>
<path d="M1257.97 622.807C1244.3 622.807 1233.72 618.755 1226.23 610.651C1218.75 602.418 1214.49 590.776 1213.46 575.725H1236.68C1237.59 592.706 1244.68 601.196 1257.97 601.196C1264.55 601.196 1269.71 599.009 1273.45 594.635C1277.33 590.262 1279.26 582.993 1279.26 572.831V486H1302.48V572.831C1302.48 589.554 1298.55 602.096 1290.68 610.458C1282.81 618.69 1271.91 622.807 1257.97 622.807Z" fill="#FFBCBC"/>
<path d="M1359.99 532.31L1351.86 514.751V621.07H1328.64V486H1361.15L1407.6 574.761L1415.73 592.513V486H1438.95V621.07H1406.44L1359.99 532.31Z" fill="#FFBCBC"/>
</g>
<defs>
<clipPath id="clip0_1_164">
<rect width="533" height="139" fill="white" transform="translate(3 282)"/>
</clipPath>
<clipPath id="clip1_1_164">
<rect width="533" height="139" fill="white" transform="translate(3 282)"/>
</clipPath>
<clipPath id="clip2_1_164">
<rect width="893" height="121" fill="white" transform="translate(546 299)"/>
</clipPath>
<clipPath id="clip3_1_164">
<rect width="893" height="121" fill="white" transform="translate(546 299)"/>
</clipPath>
<clipPath id="clip4_1_164">
<rect width="1037" height="146" fill="white" transform="translate(4 488)"/>
</clipPath>
<clipPath id="clip5_1_164">
<rect width="1037" height="146" fill="white" transform="translate(4 488)"/>
</clipPath>
<clipPath id="clip6_1_164">
<rect width="389" height="137" fill="white" transform="translate(1050 486)"/>
</clipPath>
<clipPath id="clip7_1_164">
<rect width="389" height="137" fill="white" transform="translate(1050 486)"/>
</clipPath>
</defs>
</svg>
