<svg width="24" height="24" viewBox="0 0 24 24" fill="none" xmlns="http://www.w3.org/2000/svg">
<path d="M23.1836 7.3811C23.171 6.43435 22.9938 5.49704 22.6598 4.61107C22.3703 3.86376 21.928 3.18507 21.3613 2.61836C20.7946 2.05165 20.1159 1.60939 19.3686 1.31982C18.494 0.991524 17.5701 0.814004 16.6361 0.794824C15.4336 0.741074 15.0523 0.726074 11.9998 0.726074C8.9473 0.726074 8.5561 0.726074 7.3623 0.794824C6.42879 0.814144 5.50528 0.991664 4.63109 1.31982C3.88367 1.60919 3.20487 2.05138 2.63813 2.61812C2.0714 3.18485 1.62921 3.86365 1.33984 4.61107C1.01088 5.48499 0.833754 6.40871 0.816094 7.3423C0.762344 8.5461 0.746094 8.92731 0.746094 11.9798C0.746094 15.0323 0.746094 15.4223 0.816094 16.6173C0.834844 17.5523 1.01109 18.4748 1.33984 19.3511C1.62969 20.0983 2.07221 20.7768 2.63914 21.3433C3.20606 21.9098 3.88492 22.3518 4.63234 22.6411C5.50414 22.9826 6.42781 23.1728 7.3636 23.2036C8.5673 23.2573 8.9486 23.2736 12.0011 23.2736C15.0536 23.2736 15.4448 23.2736 16.6386 23.2036C17.5725 23.1852 18.4965 23.0081 19.3711 22.6798C20.1182 22.3899 20.7967 21.9475 21.3634 21.3809C21.9301 20.8142 22.3724 20.1357 22.6623 19.3886C22.9911 18.5136 23.1673 17.5911 23.1861 16.6548C23.2398 15.4523 23.2561 15.0711 23.2561 12.0173C23.2536 8.9648 23.2536 8.5773 23.1836 7.3811ZM11.9923 17.7523C8.7998 17.7523 6.21359 15.1661 6.21359 11.9736C6.21359 8.7811 8.7998 6.19482 11.9923 6.19482C13.525 6.19482 14.9948 6.80366 16.0785 7.8874C17.1623 8.9711 17.7711 10.441 17.7711 11.9736C17.7711 13.5062 17.1623 14.976 16.0785 16.0598C14.9948 17.1435 13.525 17.7523 11.9923 17.7523ZM18.0011 7.3286C17.2548 7.3286 16.6536 6.72607 16.6536 5.98107C16.6536 5.8042 16.6884 5.62906 16.7561 5.46565C16.8238 5.30224 16.923 5.15376 17.0481 5.02869C17.1732 4.90362 17.3216 4.80441 17.485 4.73672C17.6485 4.66904 17.8236 4.6342 18.0005 4.6342C18.1773 4.6342 18.3525 4.66904 18.5159 4.73672C18.6793 4.80441 18.8278 4.90362 18.9529 5.02869C19.0779 5.15376 19.1771 5.30224 19.2448 5.46565C19.3125 5.62906 19.3473 5.8042 19.3473 5.98107C19.3473 6.72607 18.7448 7.3286 18.0011 7.3286Z" fill="black"/>
</svg>
